<svg width="96" height="96" xmlns="http://www.w3.org/2000/svg" xmlns:xlink="http://www.w3.org/1999/xlink" xml:space="preserve" overflow="hidden"><g transform="translate(-232 -134)"><path d="M280 150C262.3 150 248 164.3 248 182 248 199.7 262.3 214 280 214 297.7 214 312 199.7 312 182 312 164.3 297.7 150 280 150ZM280 220C259 220 242 203 242 182 242 161 259 144 280 144 301 144 318 161 318 182 318 203 301 220 280 220Z"/><path d="M300 174 288 174 288 162C288 159.8 286.2 158 284 158L276 158C273.8 158 272 159.8 272 162L272 174 260 174C257.8 174 256 175.8 256 178L256 186C256 188.2 257.8 190 260 190L272 190 272 202C272 204.2 273.8 206 276 206L284 206C286.2 206 288 204.2 288 202L288 190 300 190C302.2 190 304 188.2 304 186L304 178C304 175.8 302.2 174 300 174Z"/></g></svg>